<svg xmlns="http://www.w3.org/2000/svg" viewBox="0 0 150 170">
  <defs>
    <filter id="sh" x="-20%" y="-20%" width="140%" height="140%">
      <feDropShadow dx="2" dy="4" stdDeviation="4" flood-opacity="0.25"/>
    </filter>
    <linearGradient id="gold" x1="0" y1="0" x2="0" y2="1">
      <stop offset="0" stop-color="#ffd86b"/>
      <stop offset="1" stop-color="#d99a1b"/>
    </linearGradient>
  </defs>
  <g filter="url(#sh)">
    <!-- die-cut -->
    <path d="M75 6 L82 34 L96 62 L108 96 L128 132 L136 150 L14 150 L22 132 L42 96 L54 62 L68 34 Z"
          fill="#fff" stroke="#fff" stroke-width="14" stroke-linejoin="round"/>
    <!-- stupa -->
    <path d="M75 12 L80 36 L92 62 L104 96 L124 134 L130 146 L20 146 L26 134 L46 96 L58 62 L70 36 Z" fill="url(#gold)"/>
    <!-- bands -->
    <path d="M58 62 L92 62 M46 96 L104 96 M26 134 L124 134" stroke="#b57d0e" stroke-width="5" stroke-linecap="round"/>
    <!-- hti (umbrella top) -->
    <circle cx="75" cy="10" r="6" fill="#ffd86b" stroke="#b57d0e" stroke-width="3"/>
  </g>
</svg>
