<svg xmlns="http://www.w3.org/2000/svg" viewBox="0 0 180 140">
  <defs>
    <filter id="sh" x="-20%" y="-20%" width="140%" height="140%">
      <feDropShadow dx="2" dy="4" stdDeviation="4" flood-opacity="0.25"/>
    </filter>
  </defs>
  <g filter="url(#sh)">
    <!-- die-cut -->
    <path d="M46 84 A24 24 0 0 1 40 38 A30 30 0 0 1 96 22 A26 26 0 0 1 140 40 A22 22 0 0 1 138 84 Z"
          fill="#fff" stroke="#fff" stroke-width="16" stroke-linejoin="round"/>
    <!-- cloud -->
    <path d="M48 80 A20 20 0 0 1 44 42 A26 26 0 0 1 94 28 A22 22 0 0 1 134 44 A18 18 0 0 1 134 80 Z" fill="#5b7a99"/>
    <path d="M48 80 A20 20 0 0 1 44 42 A26 26 0 0 1 80 32 L74 80 Z" fill="#6f8fae"/>
    <!-- drops -->
    <g fill="#3f8fd4" stroke="#fff" stroke-width="5" stroke-linejoin="round">
      <path d="M58 96 Q66 108 58 116 Q50 108 58 96 Z"/>
      <path d="M90 100 Q98 112 90 120 Q82 112 90 100 Z"/>
      <path d="M122 96 Q130 108 122 116 Q114 108 122 96 Z"/>
    </g>
  </g>
</svg>
