<svg xmlns="http://www.w3.org/2000/svg" viewBox="0 0 200 130">
  <defs>
    <filter id="sh" x="-20%" y="-20%" width="140%" height="140%">
      <feDropShadow dx="2" dy="4" stdDeviation="4" flood-opacity="0.25"/>
    </filter>
  </defs>
  <g filter="url(#sh)">
    <!-- die-cut blob -->
    <path d="M28 96 Q14 96 14 82 L14 66 Q14 52 30 48 L44 28 Q48 20 58 20 L128 20 Q138 20 144 28 L158 48 Q182 52 182 70 L182 82 Q182 96 168 96 Z"
          fill="#fff" stroke="#fff" stroke-width="16" stroke-linejoin="round"/>
    <!-- body -->
    <path d="M28 92 Q18 92 18 82 L18 68 Q18 56 32 52 L46 32 Q50 26 58 26 L128 26 Q136 26 141 32 L155 52 Q178 56 178 70 L178 82 Q178 92 168 92 Z" fill="#1f9d4d"/>
    <!-- windows -->
    <path d="M52 50 L60 34 Q62 30 67 30 L92 30 L92 50 Z" fill="#d9f5e3"/>
    <path d="M100 30 L124 30 Q129 30 131 34 L139 50 L100 50 Z" fill="#d9f5e3"/>
    <!-- roof sign -->
    <rect x="76" y="8" width="46" height="18" rx="5" fill="#123f22"/>
    <text x="99" y="21.5" font-family="Arial, sans-serif" font-size="11" font-weight="bold" fill="#ffffff" text-anchor="middle">TAXI</text>
    <!-- wheels -->
    <circle cx="55" cy="92" r="14" fill="#123f22" stroke="#fff" stroke-width="5"/>
    <circle cx="55" cy="92" r="5" fill="#d9f5e3"/>
    <circle cx="145" cy="92" r="14" fill="#123f22" stroke="#fff" stroke-width="5"/>
    <circle cx="145" cy="92" r="5" fill="#d9f5e3"/>
    <!-- headlight -->
    <rect x="170" y="66" width="8" height="10" rx="3" fill="#ffd34d"/>
  </g>
</svg>
